:SAMPLES-PER-SECOND 30
:FULLY-SPECIFIED
:DEGREES
1104
root  71.8421 40.0949 -2.98376 -79.7065 -85.2196 77.2313
RightUpLeg  -3.47935 -15.833 -18.2718
RightLeg  4.69339 -16.384 3.10674
RightFoot  7.24205 -0.948879 6.09841
RightToes  -1.16417e-010 0 -3.6325e-017
Spine  14.8915 -1.15845 0.443189
Spine1  8.49303 0.0441722 -4.64509
HEad  -19.7127 5.76891 -1.64401
LeftShoulder1  10.3212 -16.1784 -45.7213
LeftArm  -10.6179 -35.3768 -18.7324
LeftForeArm  16.8792 -20.342 -4.3855
LeftHand  -0.244104 0.0205437 5.32207
RightShoulder  7.06676 12.538 38.0007
RightArm  -4.83883 23.2838 34.4027
RightForeArm  -24.3429 33.4016 8.66166
RightHand  -3.12797 8.49611 -26.0355
LeftUpLeg  -1.30177 4.18016 -1.1893
LeftLeg  3.64126 20.1391 -4.43355
LeftFoot  -0.146489 -0.0971046 1.00152
LeftToes  -2.09216e-011 1.96776e-011 -5.83545e-012
1105
root  71.8477 40.1005 -2.98816 -78.6495 -85.22 76.0692
RightUpLeg  -3.24232 -15.7915 -18.3172
RightLeg  4.48652 -16.4989 3.22318
RightFoot  7.37034 -0.933052 5.96543
RightToes  -1.16417e-010 0 -3.6325e-017
Spine  14.8785 -1.0892 0.530626
Spine1  8.00376 0.0647619 -4.47396
HEad  -19.8116 5.45959 -1.71595
LeftShoulder1  10.2774 -16.3609 -45.0839
LeftArm  -11.5486 -38.9073 -18.9684
LeftForeArm  18.8567 -24.8575 -4.23631
LeftHand  -0.244104 0.0205437 5.32207
RightShoulder  6.95304 12.592 37.1755
RightArm  -5.94783 26.3728 34.0861
RightForeArm  -23.2811 38.4956 10.1823
RightHand  -3.23306 8.57255 -26.7271
LeftUpLeg  -1.15914 4.17273 -1.16697
LeftLeg  3.54015 20.0531 -4.44646
LeftFoot  -0.0742141 -0.0960877 0.961918
LeftToes  -2.09216e-011 1.96776e-011 -5.83545e-012
1106
root  71.8526 40.1059 -2.99972 -77.833 -85.1973 75.2509
RightUpLeg  -3.15596 -15.7683 -18.3402
RightLeg  4.34698 -16.6004 3.30854
RightFoot  7.46892 -0.919344 5.85519
RightToes  -1.16417e-010 0 -3.6325e-017
Spine  14.6613 -1.09553 0.508671
Spine1  7.95953 0.00328819 -4.2815
HEad  -20.1815 5.61346 -1.54063
LeftShoulder1  10.1586 -16.4133 -44.4151
LeftArm  -14.8909 -41.7505 -18.9047
LeftForeArm  22.3442 -29.6558 -5.21359
LeftHand  -0.244104 0.0205437 5.32207
RightShoulder  6.79109 12.6512 36.0445
RightArm  -7.05144 29.6619 33.998
RightForeArm  -22.1324 43.6516 12.0005
RightHand  -3.32243 8.54443 -27.4856
LeftUpLeg  -1.13212 4.13629 -1.17158
LeftLeg  3.44027 20.0134 -4.45775
LeftFoot  0.0264955 -0.095564 0.935757
LeftToes  -2.09216e-011 1.96776e-011 -5.83545e-012
1107
root  71.8522 40.1131 -3.02494 -76.4545 -85.1705 73.923
RightUpLeg  -3.11242 -15.7505 -18.3312
RightLeg  4.23619 -16.7501 3.39152
RightFoot  7.54306 -0.90414 5.74372
RightToes  -1.16417e-010 0 -3.6325e-017
Spine  14.3977 -1.17909 0.421609
Spine1  8.33262 -0.11943 -4.14139
HEad  -21.1995 6.21985 -1.65387
LeftShoulder1  9.88282 -16.2904 -43.4277
LeftArm  -17.9751 -44.1725 -18.8163
LeftForeArm  24.5974 -34.7832 -6.35297
LeftHand  -0.244104 0.0205437 5.32207
RightShoulder  6.51606 12.4835 34.789
RightArm  -8.23144 33.521 34.3621
RightForeArm  -19.6889 48.6979 14.0945
RightHand  -3.21999 7.98028 -27.7411
LeftUpLeg  -1.16536 4.14559 -1.12662
LeftLeg  3.35698 19.8816 -4.51439
LeftFoot  0.145139 -0.0989654 0.976061
LeftToes  -2.09216e-011 1.96776e-011 -5.83545e-012
1108
root  71.8338 40.1266 -3.06723 -75.2077 -85.163 72.7044
RightUpLeg  -2.91955 -15.7285 -18.3178
RightLeg  3.94992 -16.9385 3.57361
RightFoot  7.63761 -0.894932 5.66353
RightToes  -1.16417e-010 0 -3.6325e-017
Spine  14.3727 -1.2734 0.336226
Spine1  8.49203 -0.245543 -4.05556
HEad  -22.3944 7.06667 -2.17691
LeftShoulder1  9.57602 -16.0689 -42.5028
LeftArm  -20.6014 -46.1588 -18.3148
LeftForeArm  26.4508 -39.7157 -7.61729
LeftHand  -0.244104 0.0205437 5.32207
RightShoulder  6.14416 12.0933 33.4396
RightArm  -9.24862 37.6324 35.3494
RightForeArm  -15.6799 53.2202 16.3053
RightHand  -2.89201 6.8352 -27.2616
LeftUpLeg  -1.08872 4.21223 -1.00764
LeftLeg  3.16566 19.6848 -4.64107
LeftFoot  0.292692 -0.10114 1.00243
LeftToes  -2.09216e-011 1.96776e-011 -5.83545e-012
1109
root  71.7957 40.145 -3.12039 -75.7183 -85.1768 73.2057
RightUpLeg  -2.5829 -15.7413 -18.3303
RightLeg  3.4521 -17.0194 3.85906
RightFoot  7.75149 -0.906498 5.70243
RightToes  -1.16417e-010 0 -3.6325e-017
Spine  14.5015 -1.31116 0.26878
Spine1  8.15836 -0.313811 -4.01051
HEad  -22.9677 8.05873 -2.48887
LeftShoulder1  9.35515 -15.8452 -41.9681
LeftArm  -22.9411 -47.6185 -16.9912
LeftForeArm  28.3044 -43.797 -8.79599
LeftHand  -0.244104 0.0205437 5.32207
RightShoulder  5.74806 11.7121 31.8265
RightArm  -9.67202 41.5099 37.0357
RightForeArm  -11.3824 56.6281 18.2695
RightHand  -2.65527 6.12026 -26.6189
LeftUpLeg  -0.853081 4.25022 -0.900545
LeftLeg  2.81419 19.6373 -4.76834
LeftFoot  0.473694 -0.0978968 0.949411
LeftToes  -2.09216e-011 1.96776e-011 -5.83545e-012
1110
root  71.7471 40.1623 -3.17722 -75.8519 -85.1805 73.3235
RightUpLeg  -2.20242 -15.7604 -18.3483
RightLeg  2.94864 -17.1305 4.132
RightFoot  7.81014 -0.934735 5.85424
RightToes  -1.16417e-010 0 -3.6325e-017
Spine  14.4527 -1.30145 0.299303
Spine1  7.64763 -0.303593 -4.04859
HEad  -22.8347 8.8947 -2.25153
LeftShoulder1  9.20961 -15.7284 -41.5361
LeftArm  -25.2425 -48.6335 -15.1921
LeftForeArm  29.5886 -46.6439 -9.72867
LeftHand  -0.244104 0.0205437 5.32207
RightShoulder  5.40467 11.5042 30.0447
RightArm  -9.39303 44.9518 39.0555
RightForeArm  -8.57383 58.7714 19.7296
RightHand  -2.6939 6.38321 -26.4113
LeftUpLeg  -0.649483 4.20506 -0.84535
LeftLeg  2.55517 19.6366 -4.7676
LeftFoot  0.631318 -0.093433 0.881917
LeftToes  -2.09216e-011 1.96776e-011 -5.83545e-012
1111
root  71.7007 40.1743 -3.24149 -71.5311 -85.1318 68.9889
RightUpLeg  -1.8266 -15.7132 -18.2995
RightLeg  2.6755 -17.5949 4.26679
RightFoot  7.73272 -0.954714 5.99386
RightToes  -1.16417e-010 0 -3.6325e-017
Spine  14.1498 -1.27304 0.522482
Spine1  7.27404 -0.221013 -4.18902
HEad  -22.5926 9.11186 -2.00481
LeftShoulder1  9.09172 -15.7947 -40.8085
LeftArm  -27.3809 -49.4284 -13.7053
LeftForeArm  29.5212 -48.2508 -10.3643
LeftHand  -0.244104 0.0205437 5.32207
RightShoulder  5.14487 11.43 28.4495
RightArm  -8.54811 48.0793 40.9989
RightForeArm  -8.14237 59.7913 20.5779
RightHand  -2.73216 6.56113 -26.3914
LeftUpLeg  -0.68249 4.14979 -0.747098
LeftLeg  2.70665 19.2754 -4.60044
LeftFoot  0.687888 -0.0912909 0.854689
LeftToes  -2.09216e-011 1.96776e-011 -5.83545e-012
1112
root  71.6682 40.1791 -3.32078 -63.3865 -84.9566 60.7899
RightUpLeg  -1.49913 -15.6288 -18.1874
RightLeg  2.76273 -18.36 4.23559
RightFoot  7.48942 -0.95256 6.04939
RightToes  -1.16417e-010 0 -3.6325e-017
Spine  13.8181 -1.20088 0.856605
Spine1  7.08377 -0.0628106 -4.37687
HEad  -22.5051 8.83383 -2.18572
LeftShoulder1  8.9552 -15.9182 -39.8596
LeftArm  -29.2553 -50.2283 -12.8169
LeftForeArm  28.2078 -48.7238 -10.6586
LeftHand  -0.244104 0.0205437 5.32207
RightShoulder  4.92443 11.3457 27.1203
RightArm  -6.87085 51.1515 43.295
RightForeArm  -10.0477 59.3083 20.32
RightHand  -2.50401 5.7683 -25.9128
LeftUpLeg  -0.889718 4.16686 -0.54834
LeftLeg  3.21351 18.4781 -4.37799
LeftFoot  0.651728 -0.0880469 0.814195
LeftToes  -2.09216e-011 1.96776e-011 -5.83545e-012
1113
root  71.6512 40.1762 -3.41176 -55.3845 -84.602 52.6328
RightUpLeg  -1.22038 -15.6334 -18.1439
RightLeg  3.2069 -19.0718 4.11977
RightFoot  7.09645 -0.938703 6.07862
RightToes  -1.16417e-010 0 -3.6325e-017
Spine  13.6057 -1.05137 1.15594
Spine1  7.07248 0.188142 -4.59945
HEad  -22.0972 8.59471 -2.21535
LeftShoulder1  8.75194 -15.8509 -39.0127
LeftArm  -30.8635 -51.2133 -12.3613
LeftForeArm  26.6588 -48.0571 -10.5037
LeftHand  -0.244104 0.0205437 5.32207
RightShoulder  4.69823 11.1945 25.8776
RightArm  -3.76807 54.1579 46.77
RightForeArm  -13.9037 56.6565 18.512
RightHand  -2.14959 4.63566 -24.7967
LeftUpLeg  -1.02904 4.22578 -0.337538
LeftLeg  3.73711 17.5525 -4.21403
LeftFoot  0.609655 -0.0826929 0.744448
LeftToes  -2.09216e-011 1.96776e-011 -5.83545e-012
1114
root  71.6407 40.1667 -3.50585 -47.8263 -83.9864 44.8113
RightUpLeg  -0.871081 -15.7945 -18.2659
RightLeg  3.89968 -19.728 4.00528
RightFoot  6.57571 -0.92301 6.13592
RightToes  -1.16417e-010 0 -3.6325e-017
Spine  13.4402 -0.849317 1.49133
Spine1  7.23936 0.544945 -4.97508
HEad  -21.245 7.98575 -1.67123
LeftShoulder1  8.52276 -15.6434 -38.3385
LeftArm  -31.8008 -52.4599 -12.544
LeftForeArm  25.8625 -46.2652 -9.86092
LeftHand  -0.244104 0.0205437 5.32207
RightShoulder  4.52777 11.0945 24.8886
RightArm  0.749052 56.674 51.187
RightForeArm  -19.2527 51.8749 15.7599
RightHand  -1.8629 3.88971 -23.2725
LeftUpLeg  -1.02799 4.23785 -0.206022
LeftLeg  4.13856 16.5469 -4.07732
LeftFoot  0.605252 -0.0798369 0.716752
LeftToes  -2.09216e-011 1.96776e-011 -5.83545e-012
1115
root  71.637 40.1505 -3.60401 -39.217 -82.8738 35.9096
RightUpLeg  -0.402085 -16.0846 -18.5125
RightLeg  4.78485 -20.6845 3.8686
RightFoot  5.93553 -0.899771 6.18469
RightToes  -1.16417e-010 0 -3.6325e-017
Spine  13.2239 -0.617091 1.99741
Spine1  7.53996 1.00324 -5.52288
HEad  -20.3161 6.3268 -0.93435
LeftShoulder1  8.43195 -15.6926 -37.775
LeftArm  -31.526 -53.8068 -13.8625
LeftForeArm  25.9275 -43.6052 -8.89778
LeftHand  -0.244104 0.0205437 5.32207
RightShoulder  4.51611 11.2061 24.5571
RightArm  5.87697 58.376 55.3914
RightForeArm  -25.7604 45.6458 13.0118
RightHand  -1.5726 3.14471 -21.3989
LeftUpLeg  -1.08611 4.16807 -0.16676
LeftLeg  4.56801 15.1577 -3.86491
LeftFoot  0.607992 -0.0782269 0.71251
LeftToes  -2.09216e-011 1.96776e-011 -5.83545e-012
1116
root  71.6532 40.1254 -3.71172 -31.4109 -81.2091 27.8662
RightUpLeg  0.0261687 -16.5999 -18.8137
RightLeg  5.93038 -21.8632 3.58773
RightFoot  5.21516 -0.865105 6.18549
RightToes  -1.16417e-010 0 -3.6325e-017
Spine  12.9969 -0.320293 2.63481
Spine1  7.96404 1.5742 -6.15064
HEad  -19.746 3.58341 -0.647165
LeftShoulder1  8.56071 -16.1601 -37.3947
LeftArm  -30.2691 -54.888 -16.3813
LeftForeArm  26.0787 -40.4347 -7.85959
LeftHand  -0.244104 0.0205437 5.32207
RightShoulder  4.68074 11.5567 24.9514
RightArm  11.0751 59.3162 58.9128
RightForeArm  -32.7548 38.4428 10.5709
RightHand  -1.18543 1.95678 -18.7474
LeftUpLeg  -1.35919 4.06742 -0.22026
LeftLeg  5.12166 13.3277 -3.57366
LeftFoot  0.593433 -0.068585 0.621936
LeftToes  -2.09216e-011 1.96776e-011 -5.83545e-012
